<?xml version="1.0" standalone="no"?>
<svg xmlns:xlink="http://www.w3.org/1999/xlink" id="wave" style="transform:rotate(0deg); transition: 0.3s" viewBox="0 0 1440 240" version="1.1" xmlns="http://www.w3.org/2000/svg"><defs><linearGradient id="sw-gradient-0" x1="0" x2="0" y1="1" y2="0"><stop stop-color="rgba(27, 25, 26, 1)" offset="0%"/><stop stop-color="rgba(27, 25, 26, 1)" offset="100%"/></linearGradient></defs><path style="transform:translate(0, 0px); opacity:1" fill="url(#sw-gradient-0)" d="M0,48L48,68C96,88,192,128,288,132C384,136,480,104,576,76C672,48,768,24,864,40C960,56,1056,112,1152,116C1248,120,1344,72,1440,44C1536,16,1632,8,1728,8C1824,8,1920,16,2016,52C2112,88,2208,152,2304,180C2400,208,2496,200,2592,184C2688,168,2784,144,2880,148C2976,152,3072,184,3168,180C3264,176,3360,136,3456,120C3552,104,3648,112,3744,116C3840,120,3936,120,4032,124C4128,128,4224,136,4320,144C4416,152,4512,160,4608,136C4704,112,4800,56,4896,36C4992,16,5088,32,5184,40C5280,48,5376,48,5472,68C5568,88,5664,128,5760,136C5856,144,5952,120,6048,108C6144,96,6240,96,6336,80C6432,64,6528,32,6624,20C6720,8,6816,16,6864,20L6912,24L6912,240L6864,240C6816,240,6720,240,6624,240C6528,240,6432,240,6336,240C6240,240,6144,240,6048,240C5952,240,5856,240,5760,240C5664,240,5568,240,5472,240C5376,240,5280,240,5184,240C5088,240,4992,240,4896,240C4800,240,4704,240,4608,240C4512,240,4416,240,4320,240C4224,240,4128,240,4032,240C3936,240,3840,240,3744,240C3648,240,3552,240,3456,240C3360,240,3264,240,3168,240C3072,240,2976,240,2880,240C2784,240,2688,240,2592,240C2496,240,2400,240,2304,240C2208,240,2112,240,2016,240C1920,240,1824,240,1728,240C1632,240,1536,240,1440,240C1344,240,1248,240,1152,240C1056,240,960,240,864,240C768,240,672,240,576,240C480,240,384,240,288,240C192,240,96,240,48,240L0,240Z"/></svg>