<svg id="eVrzysKHLT81" xmlns="http://www.w3.org/2000/svg" xmlns:xlink="http://www.w3.org/1999/xlink" viewBox="0 0 980 425" shape-rendering="geometricPrecision" text-rendering="geometricPrecision" style="background-color:transparent"><style><![CDATA[#eVrzysKHLT853_tr {animation: eVrzysKHLT853_tr__tr 8300ms linear infinite normal forwards}@keyframes eVrzysKHLT853_tr__tr { 0% {transform: translate(802.610784px,99.739067px) rotate(-13.152568deg)} 12.048193% {transform: translate(802.610784px,99.739067px) rotate(18.482999deg)} 20.481928% {transform: translate(802.610784px,99.739067px) rotate(12.687801deg)} 31.325301% {transform: translate(802.610784px,99.739067px) rotate(-28.115412deg)} 42.168675% {transform: translate(802.610784px,99.739067px) rotate(-13.152568deg)} 51.807229% {transform: translate(802.610784px,99.739067px) rotate(1.47169deg)} 62.650602% {transform: translate(802.610784px,99.739067px) rotate(-11.15deg)} 80.722892% {transform: translate(802.610784px,99.739067px) rotate(-47.76745deg)} 100% {transform: translate(802.610784px,99.739067px) rotate(0deg)}}]]></style><g transform="translate(0 1.616021)" clip-path="url(#eVrzysKHLT860)"><g transform="translate(18.237936 1.348993)"><path d="M883.382,175.258h-574.577c-2.439,0-4.779.969-6.504,2.694s-2.694,4.065-2.694,6.505c0,2.439.969,4.779,2.694,6.504s4.065,2.694,6.504,2.694h16.275v220.066c0,2.44.97,4.779,2.695,6.504c1.725,1.726,4.065,2.695,6.504,2.695c2.44,0,4.78-.969,6.505-2.695c1.725-1.725,2.694-4.064,2.694-6.504l.14-220.066h461.156l42.52,220.066c0,2.44.969,4.779,2.694,6.504c1.725,1.726,4.065,2.695,6.505,2.695c2.439,0,4.779-.969,6.504-2.695c1.725-1.725,2.694-4.064,2.694-6.504l2.677-220.066h15.014c2.439,0,4.779-.969,6.504-2.694s2.694-4.065,2.694-6.504c0-2.44-.969-4.78-2.694-6.505s-4.065-2.694-6.504-2.694v0Z" fill="#c2a94e"/><path d="M408.401,134.269v38.954h-97.597c-2.557.089-5.108-.326-7.505-1.223-2.397-.896-4.594-2.256-6.466-4.002-1.871-1.746-3.381-3.843-4.442-6.172s-1.653-4.844-1.742-7.402.327-5.108,1.224-7.506c.896-2.397,2.256-4.594,4.002-6.465c1.746-1.872,3.843-3.381,6.172-4.442s4.844-1.653,7.402-1.742c.452-.016.903-.016,1.355,0h97.597Z" fill="#f2f2f2"/><path d="M410.798,172.924c0,.397-.158.778-.439,1.059s-.662.439-1.059.439h-100.234c-5.441-.004-10.658-2.168-14.505-6.017-3.846-3.849-6.007-9.068-6.007-14.509s2.161-10.66,6.007-14.509c3.847-3.849,9.064-6.013,14.505-6.017h100.234c.197-.001.392.038.574.113s.348.185.488.324c.139.139.25.305.325.487.076.182.115.377.115.574s-.039.392-.115.574c-.075.182-.186.348-.325.487-.14.139-.306.249-.488.324s-.377.114-.574.113h-100.234c-4.644.007-9.096,1.857-12.378,5.144s-5.125,7.741-5.125,12.386c0,4.644,1.843,9.099,5.125,12.386s7.734,5.137,12.378,5.144h100.234c.397,0,.778.158,1.059.439s.439.662.439,1.059v0Z" fill="#f11e22"/><path d="M408.401,143.258h-104.879c-.079.001-.155-.03-.211-.086-.057-.056-.089-.131-.09-.211-.001-.079.03-.155.086-.212.055-.057.131-.089.21-.09h104.884c.079.001.154.033.209.089.056.056.087.132.087.211s-.031.154-.087.21c-.055.057-.13.089-.209.089Z" fill="#ccc"/><path d="M408.401,150.45h-104.879c-.079,0-.155-.031-.211-.086-.057-.056-.089-.132-.09-.211s.03-.155.086-.212c.055-.057.131-.089.21-.09h104.884c.079,0,.154.032.209.089.056.056.087.131.087.21s-.031.155-.087.211c-.055.056-.13.088-.209.089Z" fill="#ccc"/><path d="M408.401,157.642h-104.879c-.079,0-.155-.031-.211-.087-.057-.055-.089-.131-.09-.21-.001-.08.03-.156.086-.213.055-.056.131-.089.21-.09h104.884c.079.001.154.033.209.089.056.056.087.132.087.211s-.031.155-.087.211c-.055.056-.13.088-.209.089Z" fill="#ccc"/><path d="M408.401,164.833h-104.879c-.079.001-.155-.03-.211-.086-.057-.056-.089-.131-.09-.211-.001-.079.03-.155.086-.212.055-.057.131-.089.21-.09h104.884c.079.001.154.033.209.089.056.056.087.132.087.211c0,.078-.031.154-.087.21-.055.056-.13.088-.209.089Z" fill="#ccc"/><path d="M390.003,93.2276v38.9544h-97.596c-5.166.18-10.192-1.7-13.971-5.225-3.78-3.526-6.005-8.409-6.184-13.574-.18-5.166,1.7-10.192,5.225-13.9714c3.526-3.7798,8.409-6.0042,13.574-6.184.452-.0157.904-.0157,1.356,0h97.596Z" fill="#f2f2f2"/><path d="M392.4,131.883c0,.397-.158.778-.439,1.059s-.662.439-1.059.439h-100.234c-5.444,0-10.664-2.163-14.514-6.012-3.849-3.849-6.012-9.07-6.012-14.514s2.163-10.665,6.012-14.5143c3.85-3.8494,9.07-6.012,14.514-6.012h100.234c.197,0,.391.0388.573.114.182.0753.347.1857.486.3248s.25.3043.325.4861.114.3766.114.5734-.039.3915-.114.5733-.186.347-.325.4861-.304.2495-.486.3248c-.182.0752-.376.114-.573.114h-100.234c-4.649,0-9.108,1.8469-12.395,5.1348-3.287,3.287-5.134,7.746-5.134,12.395s1.847,9.108,5.134,12.395c3.287,3.288,7.746,5.134,12.395,5.134h100.234c.397.001.778.159,1.059.439.281.281.439.662.439,1.06Z" fill="#3f3d56"/><path d="M390.003,102.217h-104.878c-.08.001-.156-.03-.212-.086-.057-.056-.089-.131-.09-.211c0-.079.03-.155.086-.212.055-.057.131-.089.21-.09h104.884c.079.001.154.033.21.089.055.056.086.132.086.211c0,.078-.031.154-.086.21-.056.056-.131.088-.21.089v0Z" fill="#ccc"/><path d="M390.003,109.409h-104.878c-.08,0-.156-.031-.212-.086-.057-.056-.089-.132-.09-.211c0-.079.03-.156.086-.212.055-.057.131-.089.21-.09h104.884c.079,0,.154.032.21.088.055.056.086.132.086.211s-.031.155-.086.211c-.056.056-.131.088-.21.089Z" fill="#ccc"/><path d="M390.003,116.6h-104.878c-.08.001-.156-.03-.212-.086-.057-.055-.089-.131-.09-.21c0-.08.03-.156.086-.213.055-.056.131-.089.21-.09h104.884c.079.001.154.033.21.089.055.056.086.132.086.211s-.031.155-.086.211c-.056.056-.131.088-.21.088Z" fill="#ccc"/><path d="M390.003,123.792h-104.878c-.08,0-.156-.031-.212-.086-.057-.056-.089-.132-.09-.211c0-.079.03-.155.086-.212.055-.057.131-.089.21-.09h104.884c.079.001.154.032.21.089.055.056.086.131.086.21s-.031.155-.086.211c-.056.056-.131.088-.21.089v0Z" fill="#ccc"/><path d="M503.537,313.102v-33.965c0-1.502-.597-2.942-1.658-4.003-1.062-1.062-2.502-1.658-4.003-1.658h-128.784c-1.502,0-2.941.596-4.003,1.658-1.062,1.061-1.658,2.501-1.658,4.003v33.965h140.106Z" fill="#c2a94e"/><path d="M503.537,325.839h-140.106v43.871h140.106v-43.871Z" fill="#c2a94e"/><path d="M363.431,382.447v33.965c0,1.502.596,2.941,1.658,4.003s2.501,1.658,4.003,1.658h128.784c1.501,0,2.941-.596,4.003-1.658c1.061-1.062,1.658-2.501,1.658-4.003v-33.965h-140.106Z" fill="#c2a94e"/><path d="M432.776,298.95c2.345,0,4.246-1.901,4.246-4.246s-1.901-4.246-4.246-4.246c-2.344,0-4.245,1.901-4.245,4.246s1.901,4.246,4.245,4.246Z" fill="#fff"/><path d="M432.776,355.558c2.345,0,4.246-1.901,4.246-4.246c0-2.344-1.901-4.245-4.246-4.245-2.344,0-4.245,1.901-4.245,4.245c0,2.345,1.901,4.246,4.245,4.246Z" fill="#fff"/><path d="M433.004,410.968c2.345,0,4.245-1.901,4.245-4.246s-1.9-4.245-4.245-4.245-4.246,1.9-4.246,4.245s1.901,4.246,4.246,4.246Z" fill="#fff"/><path d="M487.652,234.749v38.955h-97.596c-5.163.176-10.185-1.706-13.962-5.231s-6-8.406-6.179-13.569c-.18-5.163,1.697-10.187,5.22-13.966c3.523-3.78,8.402-6.006,13.565-6.189.452-.016.904-.016,1.356,0h97.596Z" fill="#f2f2f2"/><path d="M490.05,273.404c0,.397-.158.778-.439,1.059s-.662.439-1.06.439h-100.233c-5.443.001-10.663-2.159-14.513-6.006s-6.015-9.065-6.018-14.508c-.004-5.442,2.155-10.663,6-14.515c3.846-3.851,9.064-6.018,14.506-6.023h100.258c.198-.001.393.038.575.113s.348.185.487.324c.14.139.251.305.326.487.076.182.115.377.115.574s-.039.392-.115.574c-.075.182-.186.348-.326.487-.139.139-.305.249-.487.324s-.377.114-.575.113h-100.233c-4.645.006-9.098,1.856-12.381,5.143-3.282,3.287-5.126,7.742-5.126,12.387s1.844,9.1,5.126,12.387c3.283,3.287,7.736,5.137,12.381,5.143h100.233c.398,0,.779.158,1.06.439s.439.662.439,1.059v0Z" fill="#3f3d56"/><path d="M487.652,243.738h-104.878c-.079.001-.155-.03-.212-.086-.056-.056-.088-.131-.089-.211-.001-.079.03-.155.086-.212.055-.057.131-.089.21-.09h104.884c.078.001.154.033.21.089.055.056.086.132.086.211s-.031.154-.086.21c-.056.057-.132.089-.21.089h-.001Z" fill="#ccc"/><path d="M487.652,250.93h-104.878c-.079,0-.155-.031-.212-.086-.056-.056-.088-.132-.089-.211s.03-.155.086-.212c.055-.057.131-.089.21-.09h104.884c.078.001.154.032.21.089.055.056.086.131.086.21s-.031.155-.086.211c-.056.056-.132.088-.21.089h-.001Z" fill="#ccc"/><path d="M487.652,258.122h-104.878c-.079,0-.155-.031-.212-.087-.056-.055-.088-.131-.089-.21s.03-.156.086-.212c.055-.057.131-.09.21-.091h104.884c.078.001.154.033.21.089.055.056.086.132.086.211s-.031.155-.086.211c-.056.056-.132.088-.21.089h-.001Z" fill="#ccc"/><path d="M487.652,265.313h-104.878c-.079.001-.155-.03-.212-.086-.056-.056-.088-.131-.089-.211-.001-.079.03-.155.086-.212.055-.057.131-.089.21-.09h104.884c.078.001.154.033.21.089.055.056.086.132.086.211s-.031.154-.086.21c-.056.057-.132.088-.21.089h-.001Z" fill="#ccc"/><path d="M373.031,80.2324h-44.466c-.422-.0003-.838.0965-1.217.2831l-11.223,5.6183c-.369.157-.684.4192-.905.7539-.222.3347-.34.7271-.34,1.1284s.118.7937.34,1.1284c.221.3346.536.5968.905.7538l11.223,5.6183c.379.1866.795.2835,1.217.2831h44.466c.613.0355,1.215-.1719,1.676-.5772s.743-.9758.787-1.5881v-11.2367c-.044-.6123-.326-1.1828-.787-1.5881s-1.063-.6126-1.676-.5772v0Z" fill="#3f3d56"/><path d="M375.494,82.3978v11.2367c-.044.6122-.326,1.1828-.787,1.5881s-1.063.6126-1.676.5772h-8.859v-15.5674h8.859c.613-.0354,1.215.172,1.676.5773.461.4052.743.9758.787,1.5881v0Z" fill="#f11e22"/><path d="M106.444,300.412c5.726,2.012,11.873,2.516,17.85,1.464c5.977-1.053,11.582-3.628,16.276-7.476c11.952-10.032,15.7-26.56,18.749-41.864c3.006-15.088,6.013-30.177,9.019-45.266l-18.882,13.002c-13.579,9.35-27.464,18.999-36.866,32.542s-13.5058,32.03-5.952,46.684" fill="#055b03"/><path d="M108.058,355.216c-1.911-13.921-3.876-28.02-2.535-42.09c1.19-12.496,5.002-24.701,12.764-34.708c4.119-5.301,9.132-9.844,14.813-13.423c1.481-.935,2.844,1.413,1.369,2.344-9.829,6.212-17.431,15.385-21.711,26.196-4.727,12.023-5.486,25.128-4.671,37.9.492,7.723,1.536,15.396,2.588,23.059.083.347.032.712-.144,1.022s-.463.541-.803.647c-.347.094-.717.047-1.03-.131-.312-.177-.542-.47-.64-.816v0Z" fill="#89823e"/><path d="M126.466,330.583c2.455,3.732,5.831,6.769,9.801,8.818s8.401,3.041,12.865,2.88c11.474-.544,21.04-8.553,29.651-16.155l25.47-22.488-16.857-.807c-12.122-.58-24.557-1.121-36.103,2.617s-22.195,12.735-24.306,24.686" fill="#055b03"/><path d="M102.657,363.218c9.199-16.276,19.868-34.365,38.933-40.147c5.301-1.602,10.859-2.176,16.376-1.691c1.738.15,1.304,2.83-.431,2.681-9.247-.768-18.476,1.674-26.133,6.913-7.369,5.016-13.106,11.989-17.962,19.383-2.974,4.53-5.639,9.251-8.303,13.966-.852,1.507-3.341.42-2.48-1.105v0Z" fill="#89823e"/><path d="M87.9186,380.35c.31-3.591,1.5993-7.029,3.7277-9.938c2.1285-2.909,5.0143-5.178,8.3432-6.56v-9.41h15.7825v9.706c3.165,1.45,5.889,3.714,7.894,6.56s3.219,6.173,3.519,9.642l3.711,43.138h-46.6884l3.711-43.138Z" fill="#a63b8e"/><path d="M624.636,174.373l-4.694-1.977-3.221-23.535h-42.889L570.341,172.3l-4.2,2.1c-.201.101-.363.266-.458.47-.095.203-.119.433-.067.652.052.218.175.413.352.553.176.139.394.215.619.215h57.662c.231,0,.454-.08.632-.226.178-.145.301-.348.346-.574.046-.226.012-.46-.096-.664-.108-.203-.282-.363-.495-.453v0Z"/><g><path d="M700.853,151.992h-210.683c-1.105-.002-2.164-.443-2.945-1.226-.781-.782-1.219-1.842-1.219-2.948v-29.709h219.012v29.709c0,1.106-.439,2.166-1.219,2.948-.781.783-1.84,1.224-2.946,1.226v0Z" fill="#8c7e7e"/></g><path d="M705.238,132.15h-219.425v-127.11832c.002-1.33404.533-2.613,1.476-3.55629s2.222-1.473897,3.556-1.47539h209.361c1.334.001493,2.613.532097,3.557,1.47539.943.94329,1.474,2.22224,1.475,3.55629v127.11832Z" fill="#3f3d56"/><path d="M692.133,122.924h-193.214c-1.029-.001-2.015-.41-2.742-1.137s-1.136-1.713-1.137-2.742v-105.9396c.001-1.0285.41-2.0146,1.137-2.7418s1.713-1.13638,2.742-1.13756h193.214c1.028.00118,2.014.41027,2.741,1.13756.728.7272,1.137,1.7133,1.138,2.7418v105.9396c-.001,1.029-.41,2.015-1.138,2.742-.727.727-1.713,1.136-2.741,1.137v0Z" fill="#fff"/><path d="M641.243,160.305c1.247-1.152,2.732-2.017,4.35-2.533c1.618-.517,3.329-.672,5.014-.455c1.684.216,3.3.8,4.735,1.709c1.434.909,2.652,2.121,3.567,3.551l26.135-4.646l6.697,15.193-36.999,6.043c-2.505,1.379-5.429,1.79-8.217,1.157s-5.247-2.267-6.911-4.592-2.417-5.18-2.117-8.023c.301-2.843,1.633-5.478,3.746-7.404v0Z" fill="#ffb6b6"/><path d="M665.44,179.704l27.245-.339l3.449-.047l55.433-.698c0,0,15.053-14.361,28.16-29.147l-1.837-13.288c-1.792-13.041-8.261-24.987-18.204-33.615-18.773,12.544-29.66,37.374-29.66,37.374l-34.37,8.221-3.438.822-21.356,5.103-5.422,25.614Z" fill="#f11e22"/><path d="M804.913,261.38h-50.857c0,2.179-55.594,3.948-55.594,3.948-1.227.923-2.344,1.983-3.332,3.158-2.968,3.539-4.59,8.013-4.58,12.633v3.158c.002,5.234,2.082,10.254,5.783,13.955c3.702,3.701,8.721,5.781,13.956,5.783h94.624c5.234-.004,10.252-2.085,13.953-5.786c3.7-3.701,5.782-8.719,5.786-13.952v-3.158c-.007-5.233-2.089-10.25-5.789-13.95s-8.717-5.782-13.95-5.789v0Z" fill="#7a0000"/><path d="M767.93,303.231h-20.528v118.49h20.528v-118.49Z" fill="#473c3c"/><path d="M688.976,421c0,2.218,31.107.858,69.48.858c38.372,0,69.479,1.36,69.479-.858c0-2.219-31.107-19.807-69.479-19.807-38.373,0-69.48,17.589-69.48,19.807Z"/><path d="M675.186,407.461l-15.278-.001-7.268-58.929l22.548.001-.002,58.929Z" fill="#ffb6b6"/><path d="M679.082,422.27l-49.262-.002v-.623c0-5.085,2.02-9.962,5.616-13.557c3.596-3.596,8.473-5.616,13.558-5.617h.001l30.088.002-.001,19.797Z" fill="#2f2e41"/><path d="M630.031,407.461l-15.278-.001-7.268-58.929l22.548.001-.002,58.929Z" fill="#ffb6b6"/><path d="M633.927,422.27l-49.262-.002v-.623c0-5.085,2.02-9.962,5.616-13.557c3.596-3.596,8.473-5.616,13.558-5.617h.001l30.088.002-.001,19.797Z" fill="#2f2e41"/><path d="M766.887,68.2002c14.67,0,26.564-11.8931,26.564-26.564s-11.894-26.5641-26.564-26.5641c-14.671,0-26.564,11.8932-26.564,26.5641s11.893,26.564,26.564,26.564Z" fill="#ffb6b6"/><path d="M809.88,223.642c0,0,8.913,47.131-25,53.133-33.912,6.002-82.866,10.22-82.866,10.22L680.03,389.562l-29.534-2.637c0,0,3.928-123.468,13.588-133.127c9.659-9.66,70.712-38.583,70.712-38.583l75.084,8.427Z" fill="#2f2e41"/><path d="M743.646,203.89l-14.832,14.879c0,0-107.094,17.25-111.225,41.985-6.238,37.344-13.605,118.552-13.605,118.552l32.199-2.415l12.626-92.311l51.518-11.719l58.614-31.943-15.295-37.028Z" fill="#2f2e41"/><g id="eVrzysKHLT853_tr" transform="translate(802.610784,99.739067) rotate(-13.152568)"><g transform="translate(-787.76428,-98.605284)"><path d="M885.358,53.3018c-1.695.1116-3.344.5933-4.832,1.4113-1.489.8181-2.779,1.9524-3.782,3.3232-1.002,1.3708-1.692,2.9447-2.02,4.6108-.328,1.6662-.287,3.384.12,5.0326L853.483,83.4369l6.41,15.3167l29.853-22.6759c2.725-.8681,5.036-2.7052,6.496-5.1634c1.46-2.4581,1.967-5.3665,1.426-8.1739s-2.093-5.3189-4.362-7.0585c-2.268-1.7396-5.097-2.5864-7.948-2.3801v0Z" fill="#ffb6b6"/><path d="M881.92,85.4703L828.369,144.945c0,0-25.61-8.198-45.415-17.087l-8.898-27.327c-2.066-6.3401-2.948-13.0059-2.601-19.6648c27.456-7.306,59.391,19.8788,59.391,19.8788l40.085-31.399L881.92,85.4703Z" fill="#f11e22"/></g></g><path d="M792.449,25.7794c-2.623-4.9475-5.954-14.8078-11.247-16.63652-2.939-.9746-5.977-1.62176-9.059-1.92972l-8.996,3.46004l4.896-3.80796c-.953-.05679-1.906-.10322-2.858-.13928l-6.07,2.33454l3.106-2.41532c-5.659-.05808-11.5.53032-15.885,3.97522-3.738,2.9368-7.442,14.0618-8.04,18.7775-.641,4.5113-.417,9.1031.66,13.5306l1.537,1.4616c.538-1.2329.942-2.5198,1.206-3.8388.551-2.4644,1.61-4.787,3.108-6.8198c1.498-2.0327,3.404-3.731,5.595-4.9866l.083-.0472c2.579-1.451,5.707-1.3841,8.663-1.2777l14.042.5053c3.378.1215,7.016.3353,9.65,2.4544c1.674,1.5632,2.99,3.4699,3.858,5.5893c1.309,2.6414,3.866,12.6041,3.866,12.6041s1.447-1.8805,2.141-.4808c1.112-3.652,1.788-7.4227,2.014-11.2335.221-3.8278-.561-7.647-2.27-11.0794v0Z" fill="#2f2e41"/><path d="M756.964,228.035c-9.554-3.3-19.433-6.713-30.089-7.994l-.457-.055.126-.443c11.031-38.731,8.277-63.507,2.872-100.723-1.15-8.028.327-16.212,4.211-23.3308c3.883-7.1191,9.965-12.7915,17.337-16.1704l.066-.0296l30.434-1.9339.069-.0043l22.135,6.5099c3.184.9435,5.971,2.9048,7.933,5.5836c1.963,2.6788,2.994,5.9272,2.934,9.2475-.24,12.239.269,25.904.807,40.371c1.208,32.456,2.457,66.017-4.631,87.792l-.037.114-.094.074c-6.516,5.307-14.678,8.174-23.081,8.108-9.935,0-20.074-3.502-30.535-7.116Z" fill="#f11e22"/><g><path d="M520.761,76v-14.5455h1.762v6.4773h7.755v-6.4773h1.762v14.5455h-1.762v-6.5057h-7.755v6.5057h-1.762Zm19.01.2273c-.985,0-1.849-.2344-2.593-.7032-.738-.4687-1.316-1.1245-1.733-1.9673-.412-.8428-.618-1.8276-.618-2.9545c0-1.1364.206-2.1283.618-2.9759.417-.8475.995-1.5057,1.733-1.9744.744-.4688,1.608-.7031,2.593-.7031.984,0,1.846.2343,2.585.7031.743.4687,1.321,1.1269,1.733,1.9744.416.8476.625,1.8395.625,2.9759c0,1.1269-.209,2.1117-.625,2.9545-.412.8428-.99,1.4986-1.733,1.9673-.739.4688-1.601.7032-2.585.7032Zm0-1.5057c.748,0,1.363-.1918,1.846-.5753s.841-.8878,1.073-1.5128.348-1.3021.348-2.0312c0-.7292-.116-1.4086-.348-2.0384-.232-.6297-.59-1.1387-1.073-1.527-.483-.3882-1.098-.5824-1.846-.5824-.749,0-1.364.1942-1.847.5824-.483.3883-.84.8973-1.072,1.527-.232.6298-.348,1.3092-.348,2.0384c0,.7291.116,1.4062.348,2.0312s.589,1.1293,1.072,1.5128s1.098.5753,1.847.5753Zm9.178-13.2671v14.5455h-1.677v-14.5455h1.677Zm6.28,14.8012c-.692,0-1.319-.1302-1.882-.3906-.564-.2652-1.011-.6463-1.343-1.1435-.331-.5019-.497-1.108-.497-1.8182c0-.625.123-1.1316.369-1.5199.247-.393.576-.7007.988-.9233.412-.2225.866-.3882,1.363-.4971.502-.1137,1.006-.2036,1.513-.2699.663-.0852,1.2-.1492,1.612-.1918.417-.0473.72-.1255.909-.2344.194-.1089.292-.2983.292-.5681v-.0569c0-.7007-.192-1.2452-.576-1.6335-.379-.3882-.954-.5824-1.726-.5824-.8,0-1.427.1752-1.882.5256-.454.3504-.774.7244-.958,1.1222l-1.591-.5682c.284-.6629.662-1.179,1.136-1.5483.478-.3741.999-.6345,1.562-.7813.569-.1515,1.127-.2272,1.677-.2272.35,0,.752.0426,1.207.1278.459.0805.902.2486,1.328.5043.431.2556.788.6415,1.073,1.1576.284.5161.426,1.2074.426,2.0739v7.1875h-1.676v-1.4773h-.086c-.113.2368-.303.4901-.568.76s-.618.4995-1.058.6889-.978.2841-1.612.2841Zm.255-1.5057c.663,0,1.222-.1302,1.677-.3906.459-.2604.804-.5966,1.036-1.0085.237-.412.356-.8452.356-1.2998v-1.5341c-.071.0853-.228.1634-.469.2344-.237.0663-.512.1255-.824.1776-.308.0473-.608.0899-.902.1278-.289.0332-.523.0616-.703.0852-.436.0569-.843.1492-1.222.277-.374.1231-.677.3102-.909.5611-.227.2462-.341.5824-.341,1.0085c0,.5824.216,1.0228.647,1.3211.435.2935.987.4403,1.654.4403Zm17.548,1.4773c-.909,0-1.711-.2297-2.407-.6889-.696-.4641-1.241-1.1175-1.634-1.9603-.393-.8475-.589-1.8489-.589-3.0042c0-1.1459.196-2.1402.589-2.983s.94-1.4938,1.641-1.9531s1.51-.6889,2.429-.6889c.71,0,1.271.1183,1.683.3551.417.232.734.4971.952.7954.222.2936.395.5351.518.7245h.142v-5.3694h1.676v14.5455h-1.619v-1.6761h-.199c-.123.1988-.298.4498-.525.7528-.228.2983-.552.5658-.973.8026-.422.232-.983.348-1.684.348Zm.228-1.5057c.672,0,1.24-.1752,1.704-.5256.464-.3551.817-.8451,1.058-1.4701.242-.6298.363-1.3566.363-2.1804c0-.8144-.119-1.527-.356-2.1378-.236-.6156-.587-1.0938-1.051-1.4347-.464-.3456-1.037-.5185-1.718-.5185-.711,0-1.302.1823-1.776.5469-.469.3599-.821.8499-1.058,1.4702-.232.6155-.348,1.3068-.348,2.0739c0,.7765.118,1.482.355,2.1164.241.6298.596,1.1317,1.065,1.5057.474.3693,1.061.554,1.762.554Zm12.649,1.5057c-1.051,0-1.958-.232-2.72-.6961-.758-.4687-1.343-1.1221-1.755-1.9602-.407-.8428-.61-1.8229-.61-2.9403s.203-2.1023.61-2.9546c.412-.857.985-1.5246,1.719-2.0028.739-.483,1.6-.7244,2.585-.7244.568,0,1.13.0947,1.684.2841.553.1893,1.058.4971,1.512.9232.455.4215.817.9802,1.087,1.6762s.405,1.553.405,2.571v.7102h-8.409v-1.4488h6.704c0-.6156-.123-1.1648-.369-1.6478-.242-.4829-.587-.8641-1.037-1.1434-.445-.2794-.971-.4191-1.577-.4191-.667,0-1.245.1658-1.733.4972-.483.3267-.854.7528-1.115,1.2784-.26.5256-.39,1.089-.39,1.6904v.9659c0,.8238.142,1.5222.426,2.0951.289.5682.689,1.0015,1.2,1.2997.511.2936,1.106.4404,1.783.4404.44,0,.838-.0616,1.193-.1847.36-.1278.67-.3172.93-.5681.261-.2557.462-.573.604-.9518l1.619.4546c-.17.5492-.457,1.0322-.859,1.4489-.403.4119-.9.7339-1.492.9659-.591.2272-1.257.3409-1.995.3409Zm14.368-6.7898v6.5625h-1.677v-10.9091h1.62v1.7046h.142c.256-.554.644-.9991,1.165-1.3353.52-.3409,1.193-.5113,2.017-.5113.738,0,1.385.1515,1.939.4545.554.2983.984.7528,1.292,1.3636.308.6061.462,1.3732.462,2.3012v6.9318h-1.676v-6.8182c0-.857-.223-1.5246-.668-2.0028-.445-.483-1.056-.7245-1.832-.7245-.535,0-1.014.116-1.435.3481-.417.232-.746.5705-.987,1.0156-.242.4451-.362.9848-.362,1.6193Zm16.898,2.1023v-6.4489h1.676v10.9091h-1.676v-1.8466h-.114c-.256.554-.653,1.0251-1.193,1.4134-.54.3835-1.222.5752-2.046.5752-.681,0-1.287-.1491-1.818-.4474-.53-.303-.947-.7576-1.25-1.3636-.303-.6108-.454-1.3802-.454-2.3083v-6.9318h1.676v6.8182c0,.7954.222,1.4299.667,1.9034.45.4735,1.023.7102,1.719.7102.417,0,.841-.1065,1.272-.3196.435-.213.8-.5397,1.093-.9801.299-.4403.448-1.0014.448-1.6832Zm9.32,4.6875c-1.051,0-1.958-.232-2.72-.6961-.758-.4687-1.343-1.1221-1.755-1.9602-.407-.8428-.611-1.8229-.611-2.9403s.204-2.1023.611-2.9546c.412-.857.985-1.5246,1.719-2.0028.739-.483,1.6-.7244,2.585-.7244.568,0,1.129.0947,1.683.2841.554.1893,1.059.4971,1.513.9232.455.4215.817.9802,1.087,1.6762s.405,1.553.405,2.571v.7102h-8.409v-1.4488h6.704c0-.6156-.123-1.1648-.369-1.6478-.242-.4829-.587-.8641-1.037-1.1434-.445-.2794-.971-.4191-1.577-.4191-.667,0-1.245.1658-1.733.4972-.483.3267-.854.7528-1.115,1.2784-.26.5256-.39,1.089-.39,1.6904v.9659c0,.8238.142,1.5222.426,2.0951.289.5682.689,1.0015,1.2,1.2997.511.2936,1.106.4404,1.783.4404.44,0,.838-.0616,1.193-.1847.36-.1278.67-.3172.93-.5681.261-.2557.462-.573.604-.9518l1.619.4546c-.17.5492-.457,1.0322-.859,1.4489-.403.4119-.9.7339-1.492.9659-.591.2272-1.257.3409-1.995.3409ZM642.15,65.0909L638.116,76h-1.705l-4.034-10.9091h1.818l3.012,8.6932h.113l3.012-8.6932h1.818Zm6.253,11.1364c-.984,0-1.849-.2344-2.592-.7032-.739-.4687-1.316-1.1245-1.733-1.9673-.412-.8428-.618-1.8276-.618-2.9545c0-1.1364.206-2.1283.618-2.9759.417-.8475.994-1.5057,1.733-1.9744.743-.4688,1.608-.7031,2.592-.7031.985,0,1.847.2343,2.586.7031.743.4687,1.321,1.1269,1.733,1.9744.416.8476.625,1.8395.625,2.9759c0,1.1269-.209,2.1117-.625,2.9545-.412.8428-.99,1.4986-1.733,1.9673-.739.4688-1.601.7032-2.586.7032Zm0-1.5057c.749,0,1.364-.1918,1.847-.5753s.84-.8878,1.072-1.5128.348-1.3021.348-2.0312c0-.7292-.116-1.4086-.348-2.0384-.232-.6297-.589-1.1387-1.072-1.527-.483-.3882-1.098-.5824-1.847-.5824-.748,0-1.363.1942-1.846.5824-.483.3883-.841.8973-1.073,1.527-.232.6298-.348,1.3092-.348,2.0384c0,.7291.116,1.4062.348,2.0312s.59,1.1293,1.073,1.5128s1.098.5753,1.846.5753Zm9.718-13.2671l-.142,10.4546h-1.648l-.142-10.4546h1.932Zm-.966,14.6591c-.35,0-.651-.1254-.902-.3764-.251-.2509-.376-.5516-.376-.902s.125-.651.376-.902c.251-.2509.552-.3764.902-.3764.351,0,.651.1255.902.3764.251.251.377.5516.377.902c0,.232-.06.4451-.178.6392-.114.1942-.267.3504-.462.4688-.189.1136-.402.1704-.639.1704Z"/></g></g><clipPath id="eVrzysKHLT860"><rect width="979.327" height="424.837" rx="0" ry="0" fill="#fff"/></clipPath></g></svg>