<svg id="enSeKY9B7bJ1" xmlns="http://www.w3.org/2000/svg" xmlns:xlink="http://www.w3.org/1999/xlink" viewBox="0 0 749 558" shape-rendering="geometricPrecision" text-rendering="geometricPrecision" style="background-color:transparent"><style><![CDATA[#enSeKY9B7bJ34_tr {animation: enSeKY9B7bJ34_tr__tr 5100ms linear infinite normal forwards}@keyframes enSeKY9B7bJ34_tr__tr { 0% {transform: translate(431.062187px,295.988701px) rotate(0.172243deg)} 23.529412% {transform: translate(431.062187px,295.988701px) rotate(-18.29756deg)} 43.137255% {transform: translate(431.062187px,295.988701px) rotate(4.873194deg)} 62.745098% {transform: translate(431.062187px,295.988701px) rotate(-12.964325deg)} 80.392157% {transform: translate(431.062187px,295.988701px) rotate(14.392646deg)} 100% {transform: translate(431.062187px,295.988701px) rotate(-1.023813deg)}}]]></style><g><g><path d="M51.0161,470.657c-3.5996,0-7.2067.171-10.7293.516l-.5127.05c-23.3654,2.378-40.456067,16.172-39.753186,32.089l.135879,2.878c.08961,1.82.185082,3.776.263672,5.946.04255,1.07,1.311045,1.891,2.889445,1.891h574.73209c40.522-.283,80.896-.639,119.996-1.059c7.338.017,14.67-.42,21.954-1.31c10.866-1.48,18.407-4.415,23.058-8.972h.002c5.783-5.65,5.965-12.765,5.615-20.804-.712-16.233-1.419-33.285-2.124-50.286-.623-14.984-1.242-29.927-1.862-44.234-.384-8.49-1.236-15.984-7.803-21.712-7.119-6.194-20.102-9.334-38.589-9.334-.223,0-39.063,15.683-39.289,15.684-57.936.238-76.724,7.488-104.228,41.385-3.167,3.903-6.118,8.082-8.972,12.124-4.172,6.205-8.777,12.107-13.78,17.664-2.779,2.995-5.826,5.729-9.104,8.169-.223.177-.479.368-.749.549-.618.463-1.265.911-1.895,1.309-3.644,2.43-7.536,4.466-11.609,6.076l-.407.158c-.306.126-.638.251-.97.367-2.348.866-4.742,1.602-7.17,2.206-10.484,2.66-22.406,3.298-35.432,1.893-12.031-1.34-23.858-4.114-35.229-8.264-12.063-4.389-23.353-9.861-34.272-15.152-4.796-2.325-9.757-4.728-14.711-7.006-.931-.428-1.847-.847-2.777-1.266-6.051-2.715-11.537-4.957-16.771-6.855-12.857-4.696-26.31-7.564-39.964-8.521-14.409-.908-27.107.805-37.732,5.079-2.952,1.185-5.805,2.601-8.535,4.233-12.585,7.524-20.343,18.627-27.845,29.366C237.516,468.87,202.055,487.84,183,495c-21.988,8.269-28.274-.323-50.981-6.298-7.139-1.879-14.27-4.04-21.166-6.131-2.785-.845-5.572-1.683-8.361-2.516-5.4808-1.629-9.9663-2.877-14.1161-3.931l-1.3126-.336c-.73-.183-1.4608-.365-2.2049-.539-4.9291-1.191-9.5189-2.129-14.0389-2.866l-1.0694-.18c-2.144-.325-4.1484-.596-6.1153-.823l-.7851-.09c-3.9302-.425-7.8805-.636-11.8336-.633Z" fill="#43cf40"/><path d="M118.055,513.952c-.001-.316.123-.619.346-.843.222-.224.525-.351.841-.352h510.294c.314.002.616.128.838.351s.346.525.346.84c0,.314-.124.616-.346.84-.222.223-.524.349-.838.35h-510.294c-.315-.001-.616-.126-.838-.348-.223-.223-.348-.524-.349-.838Z" fill="#cacaca"/><path d="M520.42,43.04c.017,10.8456-4.079,21.2944-11.46,29.24-.56.61-1.15,1.2-1.75,1.77-22.244-17.1207-45.573-32.7834-69.84-46.89.3-.76.62-1.51.97-2.25c4.129-8.89,11.169-16.1042,19.956-20.44955c8.786-4.345352,18.793-5.56151,28.364-3.44731c9.572,2.11419,18.135,7.43207,24.274,15.07406c6.138,7.6421,9.485,17.1506,9.486,26.9528Z" fill="#ff6584"/><path d="M555.329,130.64l-.04.45c-28.31-1.95-56.616-3.903-84.92-5.86-20.45-1.41-41.61-3.01-59.68-12.69-6.86-3.67-13.54-8.57-21.32-8.91-9.65-.43-18.07,6.32-24.69,13.36-39.13,41.68-50.46,105.41-94.36,142.02c27.688-68.279,60.745-134.256,98.86-197.31c7.04-11.65,15.39-24.09,28.46-27.89c12.47-3.63,25.23,1.67,36.71,8.47c2.46,1.46,4.861,2.99,7.181,4.51c17.69,11.58,35.089,23.6033,52.199,36.07c21.01,15.29,41.544,31.217,61.6,47.78Z" fill="#b3a663"/><path d="M646.89,219.04c-30.26-42.712-65.416-81.734-104.75-116.27-11.31-9.94-22.954-19.5133-34.93-28.72-22.244-17.1206-45.573-32.7834-69.84-46.89-7.96-4.62-16.014-9.0566-24.16-13.31-6.33-3.29-13.07-6.29995-20.37-5.82995-5.108.43651-9.986,2.31245-14.07,5.40995-8.97,6.55-14.91,16.78-19.8,26.53-4.28,8.55-8.27,17.27-12.34,25.94-1.73,3.69-3.46,7.37-5.25,11.03-6.241,12.82-12.627,25.57-19.16,38.25-8.42,16.34-17.084,32.557-25.991,48.65-18.71,33.83-38.453,67.05-59.229,99.66-30.541,47.93-63.214,94.407-98.02,139.43-4.27,5.51-6.031,6.79-10.361,12.26-1,1.28-2.779-.52-1.789-1.79c36.11-45.64,67.55-88.76,99.25-137.58c23.9-36.81,46.486-74.437,67.76-112.88c6.83-12.33,13.516-24.737,20.06-37.22c10.59-20.21,20.813-40.61,30.67-61.2c2.6-5.42,5.173-10.86,7.719-16.32c8.09-17.33,19.871-43.09995,42.621-42.74995c6.69.1,12.899,2.80999,18.759,5.80995c5.97,3.07,11.83,6.33,17.68,9.64c2.34,1.32,4.671,2.66,6.991,4.02c9.19,5.34,18.243,10.9033,27.16,16.69c14.88,9.65,29.366,19.8767,43.46,30.68c6.69,5.13,13.279,10.3767,19.769,15.74c40.723,33.691,77.338,72.059,109.091,114.31c3.829,5.09,7.579,10.237,11.25,15.44.94,1.33-1.25,2.59-2.18,1.27Z" fill="#e4e4e4"/><path d="M544.392,90.0423c1.322-1.4736,2.635-2.9471,3.966-4.4207c10.492-11.6034,21.749-23.072,36.157-29.7241c6.869-3.272,14.369-5.0103,21.977-5.0944c7.865.0253,15.553,2.0883,22.819,4.9765c3.436,1.3726,6.796,2.9303,10.105,4.5891c3.781,1.903,7.494,3.9324,11.19,5.9785c6.939,3.8398,13.788,7.8479,20.546,12.0244c13.448,8.3109,26.474,17.2562,39.079,26.8354c6.535,4.968,12.934,10.099,19.199,15.393c5.827,4.917,11.536,9.967,17.127,15.148c1.196,1.103,2.981-.682,1.785-1.785-1.473-1.372-2.964-2.737-4.454-4.084-4.21-3.806-8.488-7.539-12.833-11.199-7.923-6.686-16.052-13.113-24.385-19.2827-12.959-9.5992-26.365-18.5473-40.216-26.8442-6.922-4.1428-13.939-8.1117-21.051-11.9065-2.147-1.1452-4.32-2.2651-6.518-3.3261-4.986-2.5153-10.167-4.6244-15.493-6.3068-7.544-2.4405-15.526-3.2246-23.4-2.2988-7.604,1.106-14.929,3.6401-21.59,7.4689-14.147,7.9068-25.118,20.1332-35.795,32.0649-1.079,1.2126.698,3.0061,1.785,1.7936Z" fill="#e4e4e4"/><path d="M254.542,210.284l-33.898-12.399-16.831-6.155c-5.481-2.005-10.949-4.288-16.616-5.723-4.924-1.407-10.152-1.34-15.039.191-4.358,1.613-8.347,4.086-11.731,7.272-3.456,3.183-6.672,6.617-9.621,10.275-3.664,4.404-7.275,8.854-10.901,13.288-14.967,18.304-29.835,36.687-44.6063,55.15-14.7706,18.462-29.4425,37.003-44.0155,55.622-14.6088,18.665-29.117,37.407-43.52478,56.228-1.76498,2.306-3.52845,4.613-5.29041,6.921-.97346,1.275-3.168439.018-2.181239-1.275C14.8009,370.669,29.4161,351.736,44.1325,332.882c14.7526-18.9,29.6071-37.719,44.5636-56.458c14.9559-18.739,30.0129-37.396,45.1719-55.973c3.776-4.627,7.559-9.25,11.348-13.868c3.196-3.895,6.356-7.832,9.861-11.458c6.435-6.655,14.474-12.536,24.097-12.695c5.658-.094,11.134,1.701,16.39,3.603c5.667,2.05,11.321,4.138,16.98,6.208l34.135,12.485l8.534,3.122c1.514.554.86,2.996-.671,2.436Z" fill="#e4e4e4"/><path d="M588.976,70.498c17.226-8.8533,39.286-7.1193,55.116,3.9416-30.194,5.2092-60.057,12.1791-89.437,20.8742c12.2-7.1497,21.744-18.3517,34.321-24.8158Z" fill="#b49f37"/><path d="M644.261,74.4091l3.317,2.6955c-1.122-.9434-2.288-1.828-3.486-2.665.056-.0098.113-.0207.169-.0305Z" fill="#f2f2f2"/><path d="M161.704,210.407c3.336-4.061,6.944-8.314,11.935-9.964l4.66.184C142.827,263.306,94.9207,318.075,37.5191,361.571C78.914,311.183,120.309,260.795,161.704,210.407Z" fill="#b3a663"/><path d="M620.32,442.319l-40.349-11.947v-10.271l14.38-.054c2.231-.009,4.403-.486,6.209-1.365c1.807-.879,3.158-2.116,3.863-3.537l10.102-20.338c.535-1.078.681-2.225.426-3.348-.256-1.123-.905-2.189-1.894-3.11-.99-.922-2.291-1.672-3.798-2.19-1.506-.517-3.174-.787-4.867-.787h-24.42v-9.558h30.657c2.417,0,4.762-.55,6.653-1.56c1.89-1.011,3.215-2.421,3.756-4.002l6.957-20.31c.359-1.05.362-2.142.006-3.193-.355-1.051-1.059-2.034-2.06-2.878-1-.843-2.271-1.524-3.717-1.992-1.447-.468-3.032-.711-4.638-.711h-37.615v-2.389c0-1.268-.75-2.483-2.085-3.379-1.335-.897-3.146-1.4-5.035-1.4-1.888,0-3.699.503-5.035,1.4-1.335.896-2.085,2.111-2.085,3.379v2.389h-252.176v-2.389c0-1.268-.75-2.483-2.085-3.379-1.335-.897-3.147-1.4-5.035-1.4s-3.699.503-5.035,1.4c-1.335.896-2.085,2.111-2.085,3.379v2.389h-29.901c-1.606,0-3.191.243-4.638.711-1.446.468-2.717,1.149-3.717,1.992-1.001.844-1.705,1.827-2.06,2.878-.356,1.051-.354,2.143.006,3.193l6.957,20.31c.541,1.581,1.865,2.991,3.756,4.002c1.891,1.01,4.236,1.56,6.653,1.56h22.944v9.558h-16.708c-1.683,0-3.342.267-4.843.779-1.5.512-2.799,1.255-3.79,2.168-.991.914-1.646,1.971-1.913,3.087-.266,1.115-.136,2.257.381,3.332l10.31,21.475c.696,1.45,2.063,2.714,3.901,3.608c1.839.893,4.054,1.37,6.324,1.362l6.338-.024v9.213L266.68,442.319c-1.402,0-2.791.185-4.087.545s-2.473.888-3.465,1.554-1.778,1.456-2.315,2.326c-.537.869-.813,1.801-.813,2.743c0,1.901,1.125,3.724,3.128,5.068c2.003,1.345,4.72,2.1,7.552,2.1h32.635v52.566c0,1.268.75,2.483,2.085,3.379c1.336.896,3.147,1.4,5.035,1.4c1.889,0,3.7-.504,5.035-1.4s2.085-2.111,2.085-3.379v-52.566h252.176v52.566c0,1.268.75,2.483,2.086,3.379c1.335.897,3.146,1.4,5.034,1.4c1.889,0,3.7-.503,5.035-1.4c1.335-.896,2.085-2.111,2.085-3.379v-52.566h40.349c2.832,0,5.549-.755,7.552-2.1c2.003-1.344,3.128-3.167,3.128-5.068c0-.942-.276-1.874-.813-2.743-.537-.87-1.323-1.66-2.315-2.326s-2.169-1.194-3.465-1.554-2.685-.545-4.087-.545ZM313.555,375.814h252.176v9.558h-252.176v-9.558Zm0,54.558v-9.267l252.176-.951v10.218h-252.176Z" fill="#5c5324"/><path d="M90.3704,417.814l7.9849-26.004c-9.6074-10.574-21.6506-18.643-35.0839-23.506c13.1244,21.743.4068,50.108,5.7064,74.946c1.7122,7.734,5.143,14.984,10.0379,21.212c4.895,6.228,11.1288,11.275,18.2393,14.766l12.117,15.013c6.352-11.098,10.223-23.441,11.346-36.18c1.122-12.738-.53-25.568-4.844-37.606-2.487-6.73-5.811-13.119-9.894-19.018-7.2007,8.465-15.6096,16.377-15.6096,16.377Z" fill="#568347"/><path d="M46.4651,421.137l-4.4508-26.836c-13.3146-5.18-27.6923-7.031-41.8846-5.392c21.444,13.608,22.7112,44.667,38.532,64.535c4.9818,6.158,11.2857,11.117,18.4444,14.508c7.1588,3.392,14.989,5.129,22.9103,5.082l17.5409,8.034c.736-12.766-1.3045-25.541-5.9809-37.443-4.6763-11.901-11.8773-22.648-21.1068-31.499-5.2269-4.914-11.0519-9.15-17.3374-12.609-2.6695,10.788-6.6671,21.62-6.6671,21.62Z" fill="#568347"/><g transform="matrix(.997323 0.073117-.073117 0.997323 29.492534-48.548076)"><path d="M664.612,297.232l-5.153-10.368c4.741-13.477,12.7-25.593,23.186-35.296-3.639,25.135,19.105,46.324,23.879,71.269c1.429,7.791,1.087,15.804-1.002,23.445-2.088,7.641-5.87,14.715-11.064,20.696l-5.327,18.543c-10.167-7.756-18.532-17.623-24.519-28.923-5.986-11.3-9.452-23.763-10.158-36.531-.325-7.167.254-14.346,1.723-21.369c9.925,5,8.435-1.466,8.435-1.466Z" transform="translate(-3.040646 0)" fill="#568347"/></g><g><path d="M718.669,293.711l-6.333-26.456c10.254-9.948,22.781-17.243,36.494-21.251-14.467,20.874-3.56,49.983-10.412,74.438-2.195,7.611-6.076,14.631-11.353,20.538-5.277,5.908-11.816,10.552-19.132,13.589l-13.038,14.222c-5.641-11.476-8.727-24.039-9.046-36.823-.319-12.783,2.138-25.484,7.2-37.227c2.906-6.56,6.625-12.727,11.072-18.357c6.653,8.901,14.548,17.327,14.548,17.327Z" transform="translate(0-1.013549)" fill="#568347"/></g><path d="M373.867,536.045l-11.474,5.535-26.81-41.622l16.934-8.169l21.35,44.256Z" fill="#ffb6b6"/><path d="M375.16,368.523l-10.197,15.386c0,0-60.634,40.153-58.103,55.09.885,5.226,4.733,16.217,9.682,28.465c1.52,3.764,8.666,11.245,10.341,15.115c8.455,19.54,12.665,35.174,16.726,37.266c4.509,2.338,4.047.483,6.811,4.745l16-6c0,0,2.492-5.594,3.729-8.365c1.238-2.77-.703-4.149-.703-4.149s-2.349,1.252-1.941-1.378.268-3.46-.703-4.149c-.97-.69-4.725-7.736-4.725-7.736-3.428-5.031-6.182-10.489-8.194-16.234-.893-2.521-.804-8.562-2-11-2.521-5.137-3.412-8.929-7.485-11.6c0,0,51.267-24.907,56.078-36.82c4.81-11.912-.14-51.196-.14-51.196l-25.176,2.56Z" fill="#2f2e41"/><path d="M379.95,542.09L341.153,557.2l-.191-.49c-1.56-4.005-1.465-8.466.264-12.401s4.95-7.022,8.955-8.582h.001l4.992-8.137l15.317.227l3.387-1.319l6.072,15.592Z" fill="#2f2e41"/><path d="M470.462,475.448l18.747-1.419-2.336,49.454-12.703.961-3.708-48.996Z" fill="#ffb6b6"/><path d="M367.442,382.129c-4.311-18.981,7.837,37.617,20.436,48.199c4.955,4.161,25.693-.146,42.862,1.166c10.52.897,20.792,3.688,30.32,8.237-2.739,4.991.127,12.439.66,19.136.972,12.217,1.951,23.452,1.951,23.452s-.01,7.984-.543,9.048c-.534,1.064-.269,1.863,1.326,3.994c1.594,2.131-1.067,2.128-1.067,2.128s-1.068,2.128,1.326,3.994c2.393,1.866,8.073,7.301,8.073,7.301l15.237-1.353c.44-5.061,1.755-5.726,4.641-9.907c2.745-3.956,2.117-27.695.182-49.977-.131-1.51,1.975-6.261,1.832-7.751-1.429-14.951-5.641-25.314-7.498-30.908-1.281-3.86-7.435-7.188-15.752-9.993-1.269-.428-2.589-.843-3.949-1.247-22.935-6.803-57.459-10.145-57.459-10.145l-18.877-16.79-23.701,11.416Z" fill="#2f2e41"/><path d="M472.462,521.73l3.449-1.145l11.649-9.948l9.036,3.08.001-.001c4.079-1.354,8.529-1.032,12.371.895c3.842,1.926,6.761,5.3,8.116,9.379l.166.5-39.515,13.121-5.273-15.881Z" fill="#2f2e41"/><path d="M384.839,272.832l-11.34,8.635-13.676,4.203c0,0-5.654,79.528-10.748,84.623-5.095,5.094-.5,5.231-1.524,11.849s-3.512,20.184-3.512,20.184c34.387,18.202,64.033,18.691,87.845-2.61.305-1.317.15-2.699-.438-3.917-.589-1.217-1.576-2.197-2.798-2.777-4.432-2.352,4.086-13.328.464-15.163s1.472-17.755,1.472-17.755l-3.342-33.215l2.641-5.31-6.444-32.489-11.18-4.083-4.466-10.76-22.954-1.415Z" fill="#f11e22"/><path d="M396.448,268.027c12.388,0,22.43-10.043,22.43-22.431s-10.042-22.431-22.43-22.431c-12.389,0-22.431,10.043-22.431,22.431s10.042,22.431,22.431,22.431Z" fill="#ffb6b6"/><path d="M377.735,414.181c.051-1.436-.214-2.866-.776-4.189-.561-1.323-1.406-2.506-2.475-3.467-1.068-.961-2.334-1.677-3.709-2.095-1.375-.419-2.825-.531-4.248-.329l-15.981-31.064-8.904,15.82l16.541,27.073c.498,2.368,1.848,4.471,3.793,5.91c1.945,1.44,4.35,2.115,6.76,1.9c2.41-.216,4.657-1.308,6.316-3.07c1.658-1.761,2.613-4.07,2.683-6.489Z" fill="#ffb6b6"/><path d="M350.82,406.582l-34.278-53.127.113-.245c.13-.28,7.892-17.044,15.413-32.399c1.158-2.365,2.311-4.696,3.429-6.929.483-.963.958-1.907,1.426-2.83c3.159-6.228,5.919-11.375,7.567-13.82c3.644-5.529,9.069-9.644,15.375-11.664l.158-.041.152.063c3.084,1.302,5.633,3.616,7.226,6.56c1.593,2.945,2.135,6.344,1.537,9.638-2.974,15.887-9.599,30.867-19.353,43.755l-5.557,7.325l19.311,41.985-12.519,11.729Z" fill="#f11e22"/><path d="M440.087,426.391v1.427c0,.836-.332,1.638-.924,2.229-.591.591-1.392.923-2.228.923h-104.822c-.836,0-1.638-.332-2.229-.923s-.923-1.393-.923-2.229v-1.427c0-.836.332-1.637.923-2.228s1.393-.923,2.229-.923h1.861c-.066-.231-.1-.469-.102-.708v-53.501c.001-.7.279-1.373.775-1.868.496-.496,1.168-.774,1.868-.775h96.017c.701.001,1.373.279,1.869.775.495.495.774,1.168.774,1.868v53.501c.001.239-.033.478-.101.708h1.861c.836,0,1.637.332,2.228.923.592.591.924,1.392.924,2.228Z" fill="#3f3d56"/><path d="M386.589,396.615c-1.185,0-2.343-.351-3.328-1.009-.985-.659-1.753-1.594-2.206-2.689-.454-1.095-.573-2.299-.341-3.461.231-1.162.801-2.23,1.639-3.067.838-.838,1.905-1.409,3.067-1.64c1.163-.231,2.367-.113,3.462.341c1.094.453,2.03,1.221,2.688,2.206.659.986,1.01,2.144,1.01,3.329-.002,1.588-.634,3.111-1.757,4.234s-2.646,1.755-4.234,1.756Zm0-10.949c-.98,0-1.939.291-2.754.836-.816.545-1.451,1.319-1.826,2.225-.376.906-.474,1.903-.283,2.865.192.962.664,1.845,1.357,2.539.694.693,1.577,1.165,2.539,1.356.962.192,1.959.094,2.865-.282.906-.375,1.68-1.01,2.225-1.826.544-.815.835-1.774.835-2.754-.001-1.315-.524-2.575-1.454-3.505-.929-.929-2.189-1.452-3.504-1.454Z" fill="#fff"/><path d="M384.524,394.034c3.023,0,5.474-2.451,5.474-5.475c0-3.023-2.451-5.474-5.474-5.474s-5.474,2.451-5.474,5.474c0,3.024,2.451,5.475,5.474,5.475Z" fill="#fff"/><g id="enSeKY9B7bJ34_tr" transform="translate(431.062187,295.988701) rotate(0.172243)"><g transform="translate(-431.062169,-295.9887)"><path d="M464.084,193.795l3.792,21.51c.223.531.647.986,1.209,1.298s1.233.465,1.914.437l13.249-.563c.681-.028,1.337-.237,1.871-.596.533-.359.917-.848,1.094-1.397l1.678-16.68c.699.25,1.462.358,2.227.315s1.509-.236,2.172-.563s1.225-.778,1.641-1.318c.415-.539.672-1.15.75-1.783.077-.634-.028-1.27-.306-1.859-.278-.588-.721-1.111-1.294-1.526-.572-.414-1.257-.709-1.998-.859-.742-.149-1.518-.151-2.265-.003-.31-.278-.69-.496-1.114-.639-.424-.142-.882-.205-1.342-.185l-20.379.865c-.498.021-.985.139-1.422.344s-.812.491-1.094.836-.463.739-.53,1.15c-.066.411-.016.827.147,1.216Zm25.175,2.87l1.292-3.992c.149-.461.145-.945-.011-1.4.062-.006.12-.021.183-.023.916-.039,1.807.225,2.477.735.67.509,1.065,1.222,1.097,1.981.032.76-.301,1.503-.925,2.068-.625.564-1.49.903-2.406.942-.594.022-1.183-.085-1.707-.311Z" fill="#3f3d56"/><path d="M488.975,192.888c-1.013,1.051-1.741,2.269-2.13,3.57-.39,1.3-.433,2.652-.125,3.958.308,1.307.958,2.537,1.905,3.604s2.168,1.945,3.576,2.572l-6.651,32.073l18.627-7.003l3.46-29.383c1.15-2.05,1.361-4.368.593-6.513-.769-2.146-2.464-3.97-4.764-5.128-2.301-1.157-5.046-1.568-7.717-1.153s-5.081,1.625-6.774,3.403Z" fill="#ffb6b6"/><path d="M506.862,223.657l-7.782,59.428-.257.11c-.213.09-9.426,4.022-20.733,8.701-1.908.789-1.667,4.285-3.66,5.102-1.374.563-4.967-1.557-6.355-.992-12.359,5.024-24.854,9.904-29.828,11.213-6.715,1.832-13.936,1.559-20.464-.773l-.157-.066-.082-.138c-1.647-2.81-2.173-6.035-1.491-9.144.683-3.108,2.533-5.914,5.246-7.955c13.158-9.792,28.693-16.717,45.38-20.229l9.494-1.988l12.52-42.27l18.169-.999Z" fill="#f11e22"/></g></g><path d="M414.718,226.326c-1.845-5.367-11.028-9.089-25.914-9.607-14.887-.517-18.663,17.026-18.663,17.026-9.938,8.062,10.612,29.645,11.606,28.868l-.447-4.055c-.74-6.717-3.885-11.958.115-18.958l3.841.044c4.961.954,9.921,1.908,14.882,2.862l-5.873-5.171.166-.256c2.498,1.301,5.216,2.126,8.016,2.434c3.157.185,6.608-1.071,8.12-3.848.403-.763.65-1.6.725-2.46c4.256,1.701,6.203,6.948,6.203,6.948s-.933-8.461-2.777-13.827Z" fill="#2f2e41"/></g></g><text dx="0" dy="0" font-family="&quot;Roboto&quot;" font-size="32.675" font-weight="400" transform="translate(1006.82626 271.243857)" stroke-width="0"><tspan y="0" font-weight="400" stroke-width="0"><![CDATA[ ]]></tspan></text><text dx="0" dy="0" font-family="&quot;Roboto&quot;" font-size="32.675" font-weight="400" transform="translate(987.507576 262.462637)" stroke-width="0"><tspan y="0" font-weight="400" stroke-width="0"><![CDATA[ ]]></tspan></text></svg>