<svg id="elaC5vQEWf81" xmlns="http://www.w3.org/2000/svg" xmlns:xlink="http://www.w3.org/1999/xlink" viewBox="0 0 811 596" shape-rendering="geometricPrecision" text-rendering="geometricPrecision"><style><![CDATA[#elaC5vQEWf87_tr {animation: elaC5vQEWf87_tr__tr 6000ms linear infinite normal forwards}@keyframes elaC5vQEWf87_tr__tr { 0% {transform: translate(182.264447px,321.731182px) rotate(0deg)} 33.333333% {transform: translate(182.264447px,321.731182px) rotate(2.171153deg)} 50% {transform: translate(182.264447px,321.731182px) rotate(-2.392774deg)} 100% {transform: translate(182.264447px,321.731182px) rotate(0.182168deg)}} #elaC5vQEWf811_tr {animation: elaC5vQEWf811_tr__tr 6000ms linear infinite normal forwards}@keyframes elaC5vQEWf811_tr__tr { 0% {transform: translate(210.287013px,129.924728px) rotate(5.363537deg)} 16.666667% {transform: translate(210.287013px,129.924728px) rotate(-12.407923deg)} 36.666667% {transform: translate(210.287013px,129.924728px) rotate(6.866232deg)} 53.333333% {transform: translate(210.287013px,129.924728px) rotate(-8.539375deg)} 70% {transform: translate(210.287013px,129.924728px) rotate(3.848973deg)} 83.333333% {transform: translate(210.287013px,129.924728px) rotate(-6.072039deg)} 100% {transform: translate(210.287013px,129.924728px) rotate(5.394954deg)}} #elaC5vQEWf865_tr {animation: elaC5vQEWf865_tr__tr 6000ms linear infinite normal forwards}@keyframes elaC5vQEWf865_tr__tr { 0% {transform: translate(173.890541px,32.667286px) rotate(0deg)} 10% {transform: translate(173.890541px,32.667286px) rotate(-7.331467deg)} 23.333333% {transform: translate(173.890541px,32.667286px) rotate(-7.331467deg)} 35% {transform: translate(173.890541px,32.667286px) rotate(1.887674deg)} 46.666667% {transform: translate(173.890541px,32.667286px) rotate(-4.578362deg)} 100% {transform: translate(173.890541px,32.667286px) rotate(-4.578362deg)}}]]></style><g transform="translate(0-.00003)" clip-path="url(#elaC5vQEWf881)"><g transform="translate(.872009 0)"><path d="M707.724,370.361c0-5.36-1.8-9.71-4.01-9.72h-602.49c-2.2204.01-4.0104,4.36-4.0204,9.72v220.643c.0001.497-.1851.977-.5194,1.346-.3344.368-.794.599-1.2893.647-1.6171.156-3.2342.3-4.8513.434-.04,0-.08.01-.12.01-.88.08-1.76.14-2.64.21h-.01c-.4526-.837-.9001-1.681-1.3422-2.533-.1496-.287-.2277-.606-.2278-.929v-232.438c0-1.48.06-2.97.16-4.44.1428-2.019.3931-4.028.75-6.02c1.69-9.29,5.51-15.58,9.85-15.6h611.0004c.633.004,1.259.137,1.84.39.852.377,1.623.917,2.27,1.59.877.912,1.627,1.937,2.23,3.05c2.14,3.77,3.67,9.39,4.21,15.93c0,.06.01.12.01.18.14,1.62.21,3.27.2,4.92l.14,21.43.09,12.78.27,40.1.1,14.24.44,146.2c0,.53-.211,1.039-.586,1.414s-.884.586-1.414.586h-8.04c-.531,0-1.04-.211-1.415-.586s-.585-.884-.585-1.414v-222.14Z" fill="#b69933"/><path d="M544.008,231.415h-64.92c-.918.001-1.798.367-2.447,1.018-.648.65-1.012,1.531-1.011,2.45v102.553h71.845v-102.553c0-.456-.089-.907-.263-1.328s-.43-.803-.752-1.125-.704-.577-1.125-.752c-.421-.174-.872-.263-1.327-.263v0Zm-32.242,58.27c-2.03-.01-3.974-.821-5.41-2.256-1.435-1.436-2.246-3.38-2.255-5.41v-11.829c.002-2.031.81-3.979,2.248-5.415c1.437-1.436,3.386-2.242,5.417-2.242c2.032,0,3.981.806,5.418,2.242s2.246,3.384,2.248,5.415v11.829c-.009,2.03-.82,3.974-2.255,5.41-1.436,1.436-3.38,2.246-5.411,2.256Z" fill="#2f2e41"/><path d="M475.407,334.156v9.894c.001.513.205,1.004.568,1.367.362.362.854.566,1.366.567h68.423c.512-.002,1.002-.207,1.365-.569.362-.362.567-.853.569-1.365v-9.894h-72.291Z" fill="#3f3d56"/><g id="elaC5vQEWf87_tr" transform="translate(182.264447,321.731182) rotate(0)"><g transform="translate(-182.264444,-321.731181)"><path d="M378.969,471.236l12.798-5.727-16.029-53.295-18.89,8.452l22.121,50.57Z" fill="#ffb6b6"/><path d="M369.802,456.767l19.145-13.52l5.284,8.518l27,1.329c1.333.065,2.611.555,3.646,1.398c1.036.843,1.774,1.995,2.109,3.288.334,1.293.246,2.658-.251,3.897-.496,1.24-1.376,2.288-2.511,2.992l-23.669,14.683-9.307-5.895l3.634,9.414-8.924,5.536-16.156-31.64Z" fill="#2f2e41"/><path d="M384.252,419.645l-25.467,22.293-49.913-102.081c-49.495,8.512-96.19,11.239-136.579.942-13.674-3.439-22.033-17.559-18.67-31.538.157-.653.339-1.3.546-1.939c4.833-14.748,17.486-25.183,27.455-41.404l72.817,1.106-8.133,28.062l70.736-9.153c14.226-1.841,27.218,8.455,29.018,22.998.095.768.157,1.539.187,2.313l38.003,108.401Z" transform="translate(.628468 5.370931)" fill="#2f2e41"/></g></g><g id="elaC5vQEWf811_tr" transform="translate(210.287013,129.924728) rotate(5.363537)"><g transform="translate(-210.287013,-129.924728)"><path d="M391.997,88.5992c-.747,1.8809-1.897,3.5752-3.37,4.9634s-3.232,2.4366-5.154,3.0713-3.96.8403-5.97.6023-3.943-.9138-5.663-1.9797L280.202,159.095l-2.53-25.44l90.101-58.3761c1.983-2.7716,4.913-4.7198,8.236-5.4753c3.322-.7556,6.807-.266,9.793,1.3759s5.266,4.322,6.408,7.5326s1.066,6.7285-.213,9.8871v0Z" transform="translate(1.908069-.881257)" fill="#ffb6b6"/><path d="M186.826,128.851c0,0-9.923,14.661,5.648,27.636c15.57,12.975,78.681,10.393,88.865,10.282c10.185-.112,56.913-48.451,56.913-48.451l-.306-27.9171-56.418,33.4761-94.702,4.974Z" transform="translate(.067252-.853656)" fill="#ff0800"/></g></g><path d="M181.208,226.193l1,19c0,0-2.952,16.83-.524,20.462c2.409,3.614,68.568,8.99,68.568,8.99s-2.074-28.336,1.667-48.833l-70.711.381Z" fill="#ffb6b6"/><path d="M209.64,98.3301c16.33,0,29.568-13.238,29.568-29.5678s-13.238-29.5678-29.568-29.5678-29.568,13.238-29.568,29.5678s13.238,29.5678,29.568,29.5678Z" fill="#ffb6b6"/><path d="M192.306,109.004l27.111,3.19c1.143.134,2.216.622,3.069,1.395s1.443,1.793,1.689,2.918l4.311,19.729l26.877,31.65c0,0,9.651,18.096,6.032,38.605-2.178,12.35-5.946,24.366-11.21,35.748c0,0-66.096,27.031-68.508,23.412-2.413-3.619-3.196-20.058-3.196-20.058l-8.504-94.602c-.487-4.985.136-10.015,1.822-14.731c1.687-4.716,4.396-8.999,7.934-12.545c2.145-2.11,4.263-3.587,5.986-3.587c3.893-.131,3.394-8.893,6.587-11.124Z" fill="#ff0800"/><g><path d="M250.479,510.874l12.581,6.162l30.287-46.676-18.569-9.095-24.299,49.609Z" fill="#ffb6b6"/><path d="M280.617,500.325l-25.847-9.813l35.474-106.546c-48.194-14.13-84.546-36.89-116.286-63.905-10.768-9.104-18.843-20.795-9.673-31.869.429-.518.877-1.019,1.343-1.502c10.829-11.118,38.312-8.979,54.4-19.16l35.982,38.416-2.255,10.291l67.551,22.898c13.585,4.605,20.722,19.567,15.941,33.419-.252.731-.536,1.451-.85,2.159l-55.78,125.612Z" transform="translate(1.879465 13.156256)" fill="#2f2e41"/><path d="M250.05,503.437l21.625,9.038-4.41,9.002l13.217,23.581c.653,1.165.916,2.508.752,3.833-.164,1.324-.748,2.562-1.665,3.532-.918.97-2.121,1.621-3.435,1.859-1.314.237-2.669.048-3.868-.539l-25.014-12.254.05-11.016-6.045,8.079-9.431-4.62l18.224-30.495Z" fill="#2f2e41"/></g><g><path d="M207.763,340.301c-1.696-1.105-3.129-2.568-4.198-4.287-1.069-1.718-1.748-3.65-1.989-5.66-.242-2.009-.04-4.047.591-5.97s1.677-3.684,3.062-5.16L160.8,216.76l25.438,2.557l39.378,99.878c2.325,2.491,3.654,5.749,3.737,9.156.082,3.407-1.088,6.725-3.288,9.327-2.201,2.601-5.28,4.306-8.653,4.789-3.373.484-6.806-.287-9.649-2.166Z" fill="#ffb6b6"/><path d="M208.936,131.222c0,0-12.406-12.63-28.207.063s-25.768,75.065-27.675,85.07c-1.908,10.005,36.221,65.38,36.221,65.38l27.425,5.228-21.641-61.929l13.877-93.812Z" fill="#ff0800"/></g><path d="M651.508,71.3688h-277.505c-2.384.0038-4.669.9526-6.355,2.6384-1.686,1.6859-2.635,3.9714-2.639,6.3556v187.2612c.003,2.385.951,4.671,2.637,6.357c1.686,1.687,3.973,2.635,6.357,2.637h277.505c2.385-.002,4.671-.95,6.358-2.637c1.686-1.686,2.634-3.972,2.636-6.357v-187.2612c-.003-2.3842-.952-4.6697-2.638-6.3556-1.686-1.6858-3.971-2.6346-6.356-2.6384v0Z" fill="#3f3d56"/><path d="M649.192,77.8651h-272.87c-1.277.0027-2.5.5118-3.402,1.4154-.901.9036-1.408,2.128-1.408,3.4046v182.6199c.002,1.275.51,2.497,1.411,3.399.902.901,2.124,1.409,3.399,1.411h272.87c1.275-.002,2.497-.51,3.399-1.411.901-.902,1.409-2.124,1.411-3.399v-182.6199c0-1.2766-.507-2.501-1.408-3.4046-.902-.9036-2.125-1.4127-3.402-1.4154Z" fill="#fff"/><path d="M596.042,349.427h-162.343c-.445,0-.883-.099-1.285-.29-.401-.191-.754-.469-1.034-.814-.28-.346-.48-.749-.584-1.181-.105-.432-.111-.881-.02-1.316l2.519-11.964c.144-.669.512-1.27,1.043-1.701.532-.431,1.195-.668,1.879-.67h157.306c.684.002,1.347.239,1.879.67.531.431.899,1.032,1.043,1.701l2.519,11.964c.091.435.085.884-.02,1.316-.104.432-.304.835-.584,1.181-.28.345-.633.623-1.034.814s-.84.29-1.285.29h.001Z" fill="#2f2e41"/><path d="M441.882,333.645h-4.024c-.269,0-.488.219-.488.488v2.024c0,.27.219.488.488.488h4.024c.27,0,.488-.218.488-.488v-2.024c0-.269-.218-.488-.488-.488Z" fill="#3f3d56"/><path d="M451.882,333.645h-4.024c-.269,0-.488.219-.488.488v2.024c0,.27.219.488.488.488h4.024c.27,0,.488-.218.488-.488v-2.024c0-.269-.218-.488-.488-.488Z" fill="#3f3d56"/><path d="M461.882,333.645h-4.024c-.269,0-.488.219-.488.488v2.024c0,.27.219.488.488.488h4.024c.27,0,.488-.218.488-.488v-2.024c0-.269-.218-.488-.488-.488Z" fill="#3f3d56"/><path d="M471.882,333.645h-4.024c-.269,0-.488.219-.488.488v2.024c0,.27.219.488.488.488h4.024c.27,0,.488-.218.488-.488v-2.024c0-.269-.218-.488-.488-.488Z" fill="#3f3d56"/><path d="M481.882,333.645h-4.024c-.269,0-.488.219-.488.488v2.024c0,.27.219.488.488.488h4.024c.27,0,.488-.218.488-.488v-2.024c0-.269-.218-.488-.488-.488Z" fill="#3f3d56"/><path d="M491.882,333.645h-4.024c-.269,0-.488.219-.488.488v2.024c0,.27.219.488.488.488h4.024c.27,0,.488-.218.488-.488v-2.024c0-.269-.218-.488-.488-.488Z" fill="#3f3d56"/><path d="M501.882,333.645h-4.024c-.269,0-.488.219-.488.488v2.024c0,.27.219.488.488.488h4.024c.27,0,.488-.218.488-.488v-2.024c0-.269-.218-.488-.488-.488Z" fill="#3f3d56"/><path d="M511.882,333.645h-4.024c-.269,0-.488.219-.488.488v2.024c0,.27.219.488.488.488h4.024c.27,0,.488-.218.488-.488v-2.024c0-.269-.218-.488-.488-.488Z" fill="#3f3d56"/><path d="M521.882,333.645h-4.024c-.269,0-.488.219-.488.488v2.024c0,.27.219.488.488.488h4.024c.27,0,.488-.218.488-.488v-2.024c0-.269-.218-.488-.488-.488Z" fill="#3f3d56"/><path d="M531.882,333.645h-4.024c-.269,0-.488.219-.488.488v2.024c0,.27.219.488.488.488h4.024c.27,0,.488-.218.488-.488v-2.024c0-.269-.218-.488-.488-.488Z" fill="#3f3d56"/><path d="M541.882,333.645h-4.024c-.269,0-.488.219-.488.488v2.024c0,.27.219.488.488.488h4.024c.27,0,.488-.218.488-.488v-2.024c0-.269-.218-.488-.488-.488Z" fill="#3f3d56"/><path d="M551.882,333.645h-4.024c-.269,0-.488.219-.488.488v2.024c0,.27.219.488.488.488h4.024c.27,0,.488-.218.488-.488v-2.024c0-.269-.218-.488-.488-.488Z" fill="#3f3d56"/><path d="M561.882,333.645h-4.024c-.269,0-.488.219-.488.488v2.024c0,.27.219.488.488.488h4.024c.27,0,.488-.218.488-.488v-2.024c0-.269-.218-.488-.488-.488Z" fill="#3f3d56"/><path d="M571.882,333.645h-4.024c-.269,0-.488.219-.488.488v2.024c0,.27.219.488.488.488h4.024c.27,0,.488-.218.488-.488v-2.024c0-.269-.218-.488-.488-.488Z" fill="#3f3d56"/><path d="M581.882,333.645h-4.024c-.269,0-.488.219-.488.488v2.024c0,.27.219.488.488.488h4.024c.27,0,.488-.218.488-.488v-2.024c0-.269-.218-.488-.488-.488Z" fill="#3f3d56"/><path d="M591.882,333.645h-4.024c-.269,0-.488.219-.488.488v2.024c0,.27.219.488.488.488h4.024c.27,0,.488-.218.488-.488v-2.024c0-.269-.218-.488-.488-.488Z" fill="#3f3d56"/><path d="M441.764,338.645h-4.024c-.269,0-.488.219-.488.488v2.024c0,.27.219.488.488.488h4.024c.269,0,.488-.218.488-.488v-2.024c0-.269-.219-.488-.488-.488Z" fill="#3f3d56"/><path d="M451.764,338.645h-4.024c-.269,0-.488.219-.488.488v2.024c0,.27.219.488.488.488h4.024c.269,0,.488-.218.488-.488v-2.024c0-.269-.219-.488-.488-.488Z" fill="#3f3d56"/><path d="M461.764,338.645h-4.024c-.269,0-.488.219-.488.488v2.024c0,.27.219.488.488.488h4.024c.269,0,.488-.218.488-.488v-2.024c0-.269-.219-.488-.488-.488Z" fill="#3f3d56"/><path d="M471.764,338.645h-4.024c-.269,0-.488.219-.488.488v2.024c0,.27.219.488.488.488h4.024c.269,0,.488-.218.488-.488v-2.024c0-.269-.219-.488-.488-.488Z" fill="#3f3d56"/><path d="M481.764,338.645h-4.024c-.269,0-.488.219-.488.488v2.024c0,.27.219.488.488.488h4.024c.269,0,.488-.218.488-.488v-2.024c0-.269-.219-.488-.488-.488Z" fill="#3f3d56"/><path d="M491.764,338.645h-4.024c-.269,0-.488.219-.488.488v2.024c0,.27.219.488.488.488h4.024c.269,0,.488-.218.488-.488v-2.024c0-.269-.219-.488-.488-.488Z" fill="#3f3d56"/><path d="M501.764,338.645h-4.024c-.269,0-.488.219-.488.488v2.024c0,.27.219.488.488.488h4.024c.269,0,.488-.218.488-.488v-2.024c0-.269-.219-.488-.488-.488Z" fill="#3f3d56"/><path d="M511.764,338.645h-4.024c-.269,0-.488.219-.488.488v2.024c0,.27.219.488.488.488h4.024c.269,0,.488-.218.488-.488v-2.024c0-.269-.219-.488-.488-.488Z" fill="#3f3d56"/><path d="M521.764,338.645h-4.024c-.27,0-.488.219-.488.488v2.024c0,.27.218.488.488.488h4.024c.269,0,.488-.218.488-.488v-2.024c0-.269-.219-.488-.488-.488Z" fill="#3f3d56"/><path d="M531.764,338.645h-4.024c-.27,0-.488.219-.488.488v2.024c0,.27.218.488.488.488h4.024c.269,0,.488-.218.488-.488v-2.024c0-.269-.219-.488-.488-.488Z" fill="#3f3d56"/><path d="M541.764,338.645h-4.024c-.27,0-.488.219-.488.488v2.024c0,.27.218.488.488.488h4.024c.269,0,.488-.218.488-.488v-2.024c0-.269-.219-.488-.488-.488Z" fill="#3f3d56"/><path d="M551.764,338.645h-4.024c-.27,0-.488.219-.488.488v2.024c0,.27.218.488.488.488h4.024c.269,0,.488-.218.488-.488v-2.024c0-.269-.219-.488-.488-.488Z" fill="#3f3d56"/><path d="M561.764,338.645h-4.024c-.27,0-.488.219-.488.488v2.024c0,.27.218.488.488.488h4.024c.269,0,.488-.218.488-.488v-2.024c0-.269-.219-.488-.488-.488Z" fill="#3f3d56"/><path d="M571.764,338.645h-4.024c-.27,0-.488.219-.488.488v2.024c0,.27.218.488.488.488h4.024c.269,0,.488-.218.488-.488v-2.024c0-.269-.219-.488-.488-.488Z" fill="#3f3d56"/><path d="M581.764,338.645h-4.024c-.27,0-.488.219-.488.488v2.024c0,.27.218.488.488.488h4.024c.269,0,.488-.218.488-.488v-2.024c0-.269-.219-.488-.488-.488Z" fill="#3f3d56"/><path d="M591.764,338.645h-4.024c-.27,0-.488.219-.488.488v2.024c0,.27.218.488.488.488h4.024c.269,0,.488-.218.488-.488v-2.024c0-.269-.219-.488-.488-.488Z" fill="#3f3d56"/><path d="M524.764,344.645h-39.024c-.269,0-.488.219-.488.488v2.024c0,.27.219.488.488.488h39.024c.269,0,.488-.218.488-.488v-2.024c0-.269-.219-.488-.488-.488Z" fill="#3f3d56"/><path d="M630.399,577.663l-7.71-12.39-1.54,7.08c-.27,1.24-.54,2.5-.79,3.75-2.19-1.87-4.52-3.6-6.799-5.26-7-5.08-13.997-10.167-20.991-15.26l2.19,12.7c1.35,7.82,2.761,15.8,6.1,22.95.37.81.77,1.61,1.201,2.39h32.54c.261-.725.442-1.476.54-2.24.008-.05.011-.1.009-.15.511-4.85-2.17-9.42-4.75-13.57Z" fill="#f0f0f0"/><path d="M190.399,577.663l-7.71-12.39-1.54,7.08c-.27,1.24-.54,2.5-.79,3.75-2.19-1.87-4.52-3.6-6.799-5.26-7-5.08-13.997-10.167-20.991-15.26l2.19,12.7c1.35,7.82,2.761,15.8,6.1,22.95.37.81.77,1.61,1.201,2.39h32.54c.261-.725.442-1.476.54-2.24.008-.05.011-.1.009-.15.511-4.85-2.17-9.42-4.75-13.57Z" fill="#f0f0f0"/><path d="M808.941,594.978l-275.75.307c-.316-.001-.617-.127-.84-.35s-.348-.525-.348-.841c0-.315.125-.617.348-.84.223-.224.524-.349.84-.35l275.75-.308c.315.001.617.127.839.35.223.223.348.526.348.841s-.125.618-.348.841c-.222.223-.524.349-.839.35v0Z"/><path d="M276.941,594.978l-275.75034.307c-.315193-.001-.617156-.127-.839708-.35s-.347534-.525-.347534-.841c0-.315.124982-.617.347534-.84.222552-.224.524515-.349.839708-.35l275.75034-.308c.315.001.617.127.839.35.223.223.348.526.348.841s-.125.618-.348.841c-.222.223-.524.349-.839.35v0Z"/><g id="elaC5vQEWf865_tr" transform="translate(173.890541,32.667286) rotate(0)"><path d="M178.372,42.4051c-4.77,1.42-9.22-2.57-12.54-6.35l1.18,1.4c-7.81,5.5-12.48,14.46-15.51,23.53-3.03,9.06-4.72,18.55-8.14,27.48-3.42,8.92-8.94,17.5499-17.39,21.9999-11.32,5.96-25.19,3.25-37.2301-1.05-.16-.06-.31-.11-.47-.17c4.8765-9.109,7.8628-19.1087,8.78-29.3999-4.9529,9.6698-12.096,18.049-20.86,24.4699-7.867-3.576-15.4317-7.7831-22.62-12.5799-4.65-3.11-9.55-7.13-10.09-12.7-.55-5.53,3.58-10.58,8.45-13.24s10.47-3.56,15.79-5.16c5.31-1.59,10.73-4.2,13.52-9c6.43-11.04-4.39-26.61,2.51-37.37c3.4-5.29001,10-7.41002,16.12-8.88002c9.3411-2.23435,18.8231-3.83466,28.3801-4.78999c8.39-.84,17.06-1.149997,25.04,1.55s15.22,8.97001,16.93,17.23001c4.66,2.45,9.59,5.16,12.09,9.81c2.5,4.64,1.11,11.72-3.94,13.22Z" transform="translate(-172.507108,-32.667286)" fill="#2f2e41"/></g><path d="M171.251,40.5448c-4.567,5.7218-7.054,11.9097-7.054,15.6154-9.488,17.3421,4.081,32.2383,21.423,41.7267c6.917,3.8041,14.904,5.1971,22.701,3.9571l.725-3.0968.983,2.7898c0,0,11.291,37.293,15.016,39.481-1.414-6.637-3.032-37.367-3.819-43.844-1.089-8.8158,2.708-21.9403,5.447-29.9217c1.698-4.9189,2.569-10.0853,2.579-15.2892v-.2275l2.667,8.5665l9.709-4.1419c-1.806-10.361,0-22.1231-21.656-21.103-11.713-8.0554-22.027-9.2824-30.5-6.9977-1.093-1.6905-7.398,1.4757-9.22.5856" fill="#2f2e41"/><path d="M654.002,82.6851v182.6199c-.002,1.275-.51,2.497-1.411,3.399-.902.901-2.124,1.409-3.399,1.411h-96.22c-10.644-9.871-19.377-21.621-25.76-34.66-.42-.84-.82-1.69-1.2-2.55-5.816-12.62-9.337-26.175-10.4-40.03-.07-.85-.13-1.7-.17-2.56-.13-2.2-.19-4.43-.19-6.67-.019-14.898,2.794-29.663,8.29-43.51.33-.86.68-1.71,1.04-2.56c11.06-25.987,31.046-47.1646,56.35-59.7099h68.26c1.276.0027,2.5.5118,3.402,1.4154.901.9036,1.408,2.128,1.408,3.4046v0Z" fill="#ff0800"/><path d="M635.475,103.026h-255.323c-.266-.006-.518-.115-.704-.305-.185-.19-.289-.445-.289-.71c0-.266.104-.521.289-.711.186-.189.438-.299.704-.305h255.323c.266.006.518.116.704.305.186.19.29.445.29.711c0,.265-.104.52-.29.71s-.438.299-.704.305Z" fill="#c0df00"/><path d="M397.532,95.8111c3.286,0,5.95-2.7234,5.95-6.083s-2.664-6.083-5.95-6.083-5.95,2.7234-5.95,6.083s2.664,6.083,5.95,6.083Z" fill="#3f3d56"/><path d="M418.088,95.8111c3.286,0,5.951-2.7234,5.951-6.083s-2.665-6.083-5.951-6.083-5.95,2.7234-5.95,6.083s2.664,6.083,5.95,6.083Z" fill="#3f3d56"/><path d="M438.644,95.8111c3.286,0,5.951-2.7234,5.951-6.083s-2.665-6.083-5.951-6.083-5.95,2.7234-5.95,6.083s2.664,6.083,5.95,6.083Z" fill="#3f3d56"/><path d="M623.099,85.1528h-14.602c-.29.0057-.565.1247-.768.3314-.203.2068-.316.4847-.316.7742s.113.5675.316.7742c.203.2068.478.3258.768.3315h14.602c.289-.0057.565-.1247.768-.3315.202-.2067.316-.4847.316-.7742s-.114-.5674-.316-.7742c-.203-.2067-.479-.3257-.768-.3314v0Z" fill="#3f3d56"/><path d="M623.099,89.303h-14.602c-.29.0057-.565.1247-.768.3314s-.316.4847-.316.7742.113.5675.316.7742.478.3257.768.3314h14.602c.289-.0057.565-.1247.768-.3314.202-.2067.316-.4847.316-.7742s-.114-.5675-.316-.7742c-.203-.2067-.479-.3257-.768-.3314v0Z" fill="#3f3d56"/><path d="M623.099,93.4478h-14.602c-.29.0057-.565.1247-.768.3314s-.316.4847-.316.7742.113.5675.316.7742.478.3257.768.3314h14.602c.289-.0057.565-.1247.768-.3314.202-.2067.316-.4847.316-.7742s-.114-.5675-.316-.7742c-.203-.2067-.479-.3257-.768-.3314v0Z" fill="#3f3d56"/><path d="M456.428,162.344h-31.904c-2.396,0-4.339,1.942-4.339,4.339v0c0,2.396,1.943,4.339,4.339,4.339h31.904c2.397,0,4.339-1.943,4.339-4.339c0-2.397-1.942-4.339-4.339-4.339Z" fill="#ff0800"/><path d="M477.039,179.7h-73.125c-2.396,0-4.339,1.942-4.339,4.339c0,2.396,1.943,4.339,4.339,4.339h73.125c2.396,0,4.338-1.943,4.338-4.339c0-2.397-1.942-4.339-4.338-4.339Z" fill="#bd00ff"/><path d="M477.039,197.056h-73.125c-2.396,0-4.339,1.942-4.339,4.339v0c0,2.396,1.943,4.339,4.339,4.339h73.125c2.396,0,4.338-1.943,4.338-4.339c0-2.397-1.942-4.339-4.338-4.339Z" fill="#bd00ff"/><path d="M406.252,259.645c.006,3.575-.631,7.121-1.88,10.47h-28.05c-1.275-.002-2.497-.51-3.399-1.411-.901-.902-1.409-2.124-1.411-3.399v-35.28c1.567-.253,3.152-.38,4.74-.38c3.94,0,7.841.776,11.481,2.283c3.64,1.508,6.947,3.718,9.733,6.503c2.786,2.786,4.995,6.093,6.503,9.733c1.507,3.64,2.283,7.541,2.283,11.481Z" fill="#ff0800"/><path d="M654.252,140.135v-2.56h-42.91v-29.67h-2.55v29.67h-49.18v-29.67h-2.55v29.67h-32.48c-.36.85-.71,1.7-1.04,2.56h33.52v50.18h-41.62c.04.86.1,1.71.17,2.56h41.45v40.03h-31.05c.38.86.78,1.71,1.2,2.55h29.85v33.65h2.55v-33.65h49.18v33.65h2.55v-33.65h42.91v-2.55h-42.91v-40.03h42.91v-2.56h-42.91v-50.18h42.91Zm-45.46,92.77h-49.18v-40.03h49.18v40.03Zm0-42.59h-49.18v-50.18h49.18v50.18Z" opacity="0.2"/><path d="M619.703,251.169c-.548.025-1.089-.119-1.552-.412s-.825-.721-1.036-1.227c-.212-.505-.263-1.063-.146-1.599.116-.535.395-1.022.797-1.394l.183-.728c-.024-.058-.048-.116-.073-.175-.551-1.302-1.475-2.412-2.655-3.191-1.181-.779-2.565-1.192-3.98-1.187-1.414.005-2.795.428-3.97,1.216s-2.09,1.905-2.632,3.212c-2.165,5.214-4.921,10.437-5.6,15.951-.299,2.437-.173,4.907.373,7.301-5.086-11.092-7.726-23.149-7.743-35.351-.001-3.062.169-6.122.51-9.165.281-2.495.671-4.971,1.171-7.431c2.725-13.343,8.577-25.849,17.075-36.492c4.112-2.244,7.438-5.695,9.529-9.887.758-1.507,1.293-3.116,1.59-4.776-.464.06-.935.098-1.399.129-.145.007-.297.015-.442.023l-.054.002c-.51.023-1.016-.102-1.456-.36-.441-.258-.797-.637-1.027-1.093s-.323-.968-.268-1.476c.055-.507.255-.988.577-1.384.2-.247.4-.493.601-.74.304-.38.616-.753.92-1.133.035-.036.068-.074.099-.114.35-.433.7-.859,1.05-1.293-.639-.991-1.498-1.821-2.51-2.426-3.506-2.054-8.344-.631-10.876,2.54-2.541,3.172-3.02,7.621-2.138,11.584.868,3.371,2.303,6.571,4.244,9.461-.19.244-.388.479-.578.723-3.475,4.469-6.505,9.269-9.045,14.329.618-5.669-.119-11.404-2.15-16.733-2.059-4.966-5.917-9.148-9.315-13.441-4.082-5.157-12.451-2.907-13.17,3.63-.007.064-.014.127-.02.19.504.285.998.587,1.482.907.607.405,1.077.985,1.35,1.663.272.678.333,1.422.175,2.135s-.528,1.361-1.061,1.861c-.533.499-1.204.826-1.926.937l-.074.012c.18,1.819.498,3.621.951,5.392c1.313,4.943,3.633,9.562,6.815,13.567c3.181,4.005,7.156,7.31,11.674,9.706.297.152.586.305.883.449-2.552,7.231-4.152,14.763-4.761,22.406-.345,4.51-.325,9.04.06,13.546l-.022-.16c-.974-5.01-3.647-9.532-7.568-12.8-5.824-4.784-14.052-6.546-20.334-10.391-.668-.429-1.445-.658-2.238-.659-.793-.002-1.571.223-2.241.648-.67.426-1.204,1.034-1.539,1.753-.336.719-.459,1.519-.354,2.305.008.056.017.112.025.168.937.382,1.849.821,2.731,1.316.504.285.998.587,1.482.907.607.405,1.078.985,1.35,1.663.272.677.333,1.422.175,2.135s-.528,1.361-1.061,1.861c-.533.499-1.204.826-1.926.937l-.074.011c-.053.008-.099.016-.152.023c1.601,3.821,3.847,7.338,6.64,10.397c3.451,3.703,7.622,6.662,12.257,8.696c4.635,2.033,9.636,3.099,14.698,3.131h.007c1.374,5.971,3.365,11.782,5.94,17.341h21.22c.076-.236.145-.479.213-.715-1.964.123-3.936.006-5.872-.35c1.575-1.932,3.149-3.879,4.724-5.811.035-.036.068-.074.098-.114.799-.988,1.605-1.97,2.404-2.958v-.001c.043-3.031-.305-6.055-1.035-8.997v0Zm-24.3-47.801l.011-.015-.011.03v-.015Zm-4.7,42.371l-.183-.411c.008-.296.008-.593,0-.897c0-.084-.015-.168-.015-.251.069.524.13,1.049.206,1.574l-.008-.015Z" fill="#2f2e41"/></g><clipPath id="elaC5vQEWf881"><rect width="810.131" height="595.285" rx="0" ry="0" fill="#fff"/></clipPath></g></svg>